<svg xmlns="http://www.w3.org/2000/svg" fill="none" viewBox="0 0 982 1050">
  <circle cx="491" cy="559" r="491" fill="#1E1E1E"/>
  <path stroke="#fff" stroke-width="50" d="M543.638 148.47l-212.49 793.026m288.49-772.026l-212.49 793.026"/>
  <ellipse cx="526.5" cy="402.5" rx="124.5" ry="136.5" fill="#1E1E1E"/>
  <ellipse cx="442.5" cy="675.5" rx="124.5" ry="136.5" fill="#1E1E1E"/>
  <path d="M483 870c-41.333 0-80.333-6-117-18-36-12.667-66-31.667-90-57l55-93 4-8 9 5c1.333 4.667 3 9.667 5 15 2.667 5.333 8 11.667 16 19 16.667 12.667 35 23 55 31 20.667 7.333 43 11.333 67 12 15.333 0 29.333-1.667 42-5 13.333-3.333 24.667-8.333 34-15 9.333-6.667 16.667-15 22-25 5.333-10.667 8-22.667 8-36 0-8-1-15.667-3-23s-5.667-14.333-11-21c-4.667-7.333-11.667-14.333-21-21-9.333-7.333-21-15-35-23-14-8.667-31.667-17.667-53-27-42.667-18.667-76.667-37.667-102-57-24.667-19.333-42.333-40-53-62-10.667-22-16-47-16-75 0-30.667 8.333-58 25-82 17.333-24 41-43 71-57s64.333-21 103-21c26 0 50.333 3 73 9s43.667 15 63 27c19.333 11.333 37 26 53 44l-66 76-6 7-8-6c-.667-5.333-2-10.333-4-15-1.333-5.333-5.667-12-13-20-12.667-12-26.333-20-41-24-14-4-30.667-6-50-6-14 0-26.333 1.667-37 5-10.667 3.333-20 8-28 14-7.333 6-13.333 13-18 21-4 7.333-6 15-6 23s1 15.667 3 23c2 6.667 5.333 13.333 10 20 5.333 6.667 12.667 13.667 22 21 10 6.667 22.667 14 38 22 15.333 8 34.333 17 57 27 31.333 14.667 57.667 29 79 43 21.333 13.333 38 27.667 50 43 12.667 14.667 21.667 31 27 49 5.333 17.333 8 37 8 59 0 30-7.667 59-23 87s-39.333 51-72 69c-32.667 17.333-74.667 26-126 26z" fill="#fff"/>
</svg>
